<svg xmlns="http://www.w3.org/2000/svg" viewBox="60 60 392 412">
  <defs>
    <linearGradient id="shieldGrad" x1="0%" y1="0%" x2="0%" y2="100%">
      <stop offset="0%" stop-color="#60a5fa" />
      <stop offset="100%" stop-color="#2563eb" />
    </linearGradient>
    
    <linearGradient id="boltGrad" x1="0%" y1="0%" x2="100%" y2="100%">
      <stop offset="0%" stop-color="#10b981" />
      <stop offset="100%" stop-color="#fbbf24" />
    </linearGradient>

    <filter id="glow" x="-20%" y="-20%" width="140%" height="140%">
      <feGaussianBlur stdDeviation="6" result="blur" />
      <feComposite in="SourceGraphic" in2="blur" operator="over" />
    </filter>
  </defs>

  <path d="M256 70 L410 120 V240 C410 350 330 430 256 460 C182 430 102 350 102 240 V120 Z" fill="url(#shieldGrad)" filter="url(#glow)"/>

  <path d="M256 100 L370 145 V240 C370 325 305 390 256 415 C207 390 142 325 142 240 V145 Z" fill="#0f172a"/>

  <circle cx="256" cy="205" r="45" fill="url(#boltGrad)" filter="url(#glow)"/>
  <path d="M230 220 L285 220 L260 310 L300 310 L220 400 L240 310 L205 310 Z" fill="url(#boltGrad)" filter="url(#glow)"/>
</svg>